<svg width="32" height="32" viewBox="0 0 32 32" fill="none" xmlns="http://www.w3.org/2000/svg">
<path d="M26.1199 8.91996C24.7908 8.62768 23.5885 7.92187 22.6854 6.90382C21.7823 5.88576 21.2249 4.60779 21.0933 3.25329V2.66663H16.4933V20.8933C16.4942 21.702 16.2407 22.4906 15.7685 23.1472C15.2964 23.8039 14.6297 24.2953 13.8627 24.5519C13.0957 24.8086 12.2675 24.8174 11.4953 24.5771C10.723 24.3369 10.0459 23.8597 9.55995 23.2133C9.12455 22.6411 8.85793 21.9585 8.79026 21.2426C8.72258 20.5268 8.85654 19.8063 9.17699 19.1626C9.49744 18.519 9.99159 17.9778 10.6036 17.6003C11.2155 17.2228 11.9209 17.0241 12.6399 17.0266C13.0376 17.0244 13.4333 17.0828 13.8133 17.2V12.5333C13.3711 12.4785 12.9254 12.4562 12.4799 12.4666C10.839 12.5105 9.24651 13.0319 7.8974 13.967C6.54828 14.9021 5.50114 16.2103 4.88418 17.7315C4.26723 19.2526 4.10725 20.9207 4.42384 22.5314C4.74042 24.1421 5.51983 25.6255 6.66662 26.8C7.84193 27.9949 9.34594 28.8135 10.9875 29.1517C12.6291 29.4899 14.3342 29.3325 15.8862 28.6994C17.4381 28.0664 18.7668 26.9862 19.7035 25.5963C20.6401 24.2064 21.1424 22.5694 21.1466 20.8933V11.56C23.0019 12.8852 25.2266 13.5942 27.5066 13.5866V9.05329C27.0588 9.05514 26.6119 9.01046 26.1733 8.91996H26.1199Z" fill="#42368E"/>
</svg>
