<svg width="32" height="32" viewBox="0 0 32 32" fill="none" xmlns="http://www.w3.org/2000/svg">
<path d="M26.1773 10.6626C26.1946 10.896 26.1946 11.128 26.1946 11.36C26.1946 18.46 20.7906 26.6413 10.9146 26.6413C7.87196 26.6413 5.04529 25.76 2.66663 24.2293C3.09863 24.2786 3.51463 24.296 3.96396 24.296C6.38128 24.3018 8.73015 23.4935 10.632 22.0013C9.51119 21.981 8.42473 21.6113 7.52428 20.9436C6.62383 20.276 5.95434 19.3438 5.60929 18.2773C5.94129 18.3266 6.27463 18.36 6.62396 18.36C7.10529 18.36 7.58929 18.2933 8.03863 18.1773C6.82231 17.9317 5.72859 17.2724 4.94345 16.3116C4.15831 15.3507 3.73022 14.1475 3.73196 12.9066V12.84C4.44796 13.2386 5.27863 13.488 6.15863 13.5213C5.42141 13.0314 4.81692 12.3667 4.39908 11.5864C3.98124 10.8061 3.76304 9.93445 3.76396 9.04931C3.76396 8.05198 4.02929 7.13731 4.49463 6.33998C5.84414 8 7.5273 9.35806 9.43507 10.3262C11.3429 11.2943 13.4327 11.8509 15.5693 11.96C15.4866 11.56 15.436 11.1453 15.436 10.7293C15.4356 10.0239 15.5743 9.32539 15.8441 8.67363C16.1138 8.02187 16.5094 7.42968 17.0082 6.93089C17.507 6.43211 18.0992 6.03652 18.7509 5.76675C19.4027 5.49697 20.1012 5.35829 20.8066 5.35864C22.3533 5.35864 23.7493 6.00664 24.7306 7.05464C25.933 6.82213 27.086 6.38321 28.1386 5.75731C27.7378 6.9984 26.8983 8.05078 25.7773 8.71731C26.8437 8.59568 27.8859 8.31525 28.8693 7.88531C28.1348 8.95611 27.2247 9.8951 26.1773 10.6626Z" fill="#42368E"/>
</svg>
